<svg width="40" height="40" viewBox="0 0 40 40" fill="none" xmlns="http://www.w3.org/2000/svg">
<path d="M36 20C36 28.8366 28.8366 36 20 36C11.1634 36 4 28.8366 4 20C4 11.1634 11.1634 4 20 4C28.8366 4 36 11.1634 36 20Z" stroke="white" stroke-width="2"/>
<path d="M17.825 14.8951V17.1901H16.145V19.9951H17.825V28.3334H21.2784V19.9951H23.595C23.595 19.9951 23.8134 18.6501 23.9184 17.1784H21.2917V15.2617C21.2917 14.9734 21.6684 14.5884 22.0417 14.5884H23.9217V11.6667H21.3634C17.74 11.6667 17.825 14.4751 17.825 14.8951Z" fill="white"/>
</svg>
