<svg width="118" height="20" viewBox="0 0 118 20" fill="none" xmlns="http://www.w3.org/2000/svg">
<path d="M5.99609 20H5.15234V0.59375H5.99609V20ZM4.30859 20H3.46484V0.59375H4.30859V20ZM2.62109 20H1.77734V0.59375H2.62109V20ZM0.933594 20H0.0898438V0.59375H0.933594V20ZM12.1602 10.2969L17.1172 0.59375H18.0547L13.0977 10.2969L18.0547 20H17.1172L12.1602 10.2969ZM10.2734 10.2969L15.2305 0.59375H16.168L11.2109 10.2969L16.168 20H15.2305L10.2734 10.2969ZM8.38672 10.2969L13.3438 0.59375H14.2812L9.32422 10.2969L14.2812 20H13.3438L8.38672 10.2969ZM6.48828 10.2969L11.457 0.59375H12.3945L7.42578 10.2969L12.3945 20H11.457L6.48828 10.2969ZM28.0625 14.3047L28.4023 13.4609H31.2852L31.625 14.3047H28.0625ZM27.4062 15.9922L27.7344 15.1484H31.9414L32.3047 15.9922H27.4062ZM26.75 17.6797L27.0781 16.8359H32.6094L32.9609 17.6797H26.75ZM19.8945 20H18.9805L26.6562 0.59375H27.5703L35.2344 20H34.332L27.1133 1.73047L19.8945 20ZM27.2188 3.73438L27.6992 4.8125L21.6992 20H20.7969L27.2188 3.73438ZM28.1562 5.96094L28.6016 7.12109L23.5273 20H22.6133L28.1562 5.96094ZM29.0469 8.28125L29.4922 9.46484L25.332 20H24.4297L29.0469 8.28125ZM40.6836 20H39.7695L32.1055 0.59375H33.0078L40.6836 20ZM31.1914 0.59375L38.8672 20H37.9648L30.2891 0.59375H31.1914ZM29.375 0.59375L37.0508 20H36.1367L28.4727 0.59375H29.375ZM51.3359 14.9375L52.7305 14.0938H60.582V14.9375H51.3359ZM48.5703 16.625L49.9883 15.7812H60.582V16.625H48.5703ZM45.7695 18.3125L47.1992 17.4688H60.582V18.3125H45.7695ZM51.2422 5.65625L49.8477 6.5H41.9961V5.65625H51.2422ZM54.0078 3.96875L52.5898 4.8125H41.9961V3.96875H54.0078ZM56.8086 2.28125L55.3789 3.125H41.9961V2.28125H56.8086ZM60.582 2.57422V3.55859L41.9961 16.0508V15.0664L60.582 2.57422ZM60.582 4.56641V5.5625L41.9961 18.043V17.0352L60.582 4.56641ZM60.582 6.54688V7.53125L43.25 19.1562H60.582V20H41.9961C41.9961 20 41.9961 19.668 41.9961 19.0039L60.582 6.54688ZM59.3281 1.4375H41.9961V0.59375H60.582C60.582 0.59375 60.582 0.929688 60.582 1.60156L41.9961 14.0586V13.0859L59.3281 1.4375ZM75.5586 13.2383C75.5586 12.9336 75.4648 12.7305 75.2773 12.6289C75.0977 12.5273 74.832 12.4766 74.4805 12.4766H69.043V11.6328H74.4805C75.7617 11.6328 76.4023 12.168 76.4023 13.2383C76.4023 13.8398 76.2266 14.2734 75.875 14.5391C75.5234 14.8047 75.0586 14.9375 74.4805 14.9375H69.043V14.0938H74.4805C75.1992 14.0938 75.5586 13.8086 75.5586 13.2383ZM68.5742 20H67.7305V5.65625H74.4805C75.0117 5.65625 75.4648 5.82031 75.8398 6.14844C76.2148 6.46875 76.4023 6.87109 76.4023 7.35547C76.4023 7.99609 76.2266 8.46094 75.875 8.75C75.5234 9.03125 75.0586 9.17188 74.4805 9.17188H69.043V8.32812H74.4805C75.1992 8.32812 75.5586 8.00391 75.5586 7.35547C75.5586 7.08984 75.457 6.88281 75.2539 6.73438C75.0508 6.57812 74.793 6.5 74.4805 6.5H68.5742V20ZM69.043 10.0156H74.4805C75.2539 10.0156 75.9062 9.78516 76.4375 9.32422C76.9766 8.85547 77.2461 8.19922 77.2461 7.35547C77.2461 6.67578 76.9648 6.08203 76.4023 5.57422C75.8477 5.06641 75.207 4.8125 74.4805 4.8125H66.8867V20H66.043V3.96875H74.4805C75.4414 3.96875 76.2812 4.30859 77 4.98828C77.7266 5.66016 78.0898 6.44922 78.0898 7.35547C78.0898 8.06641 77.9219 8.6875 77.5859 9.21875C77.2578 9.75 76.8125 10.1602 76.25 10.4492C77.4766 10.8867 78.0898 11.7773 78.0898 13.1211C78.0898 14.1836 77.7383 15.0352 77.0352 15.6758C76.332 16.3086 75.4805 16.625 74.4805 16.625H69.043V15.7812H74.4805C75.2539 15.7812 75.9062 15.5508 76.4375 15.0898C76.9766 14.6211 77.2461 13.9648 77.2461 13.1211C77.2461 12.5508 77.043 12.0469 76.6367 11.6094C76.2305 11.1719 75.6328 10.918 74.8438 10.8477C74.7656 10.8555 74.6445 10.8594 74.4805 10.8594H69.043V10.0156ZM79.7773 7.35547C79.7773 8.44922 79.3906 9.4375 78.6172 10.3203C79.3906 11.1797 79.7773 12.1133 79.7773 13.1211C79.7773 14.0977 79.5312 14.9883 79.0391 15.793C78.5547 16.5898 77.9062 17.2109 77.0938 17.6562C76.2891 18.0938 75.418 18.3125 74.4805 18.3125H69.043V17.4688H74.4805C75.6992 17.4688 76.7461 17.0625 77.6211 16.25C78.4961 15.4297 78.9336 14.3867 78.9336 13.1211C78.9336 12.668 78.8164 12.168 78.582 11.6211C78.3555 11.0664 78.0391 10.6445 77.6328 10.3555C78.5 9.54297 78.9336 8.54297 78.9336 7.35547C78.9336 6.21484 78.4883 5.22656 77.5977 4.39062C76.707 3.54688 75.668 3.125 74.4805 3.125H65.1992V20H64.3555V2.28125H74.4805C75.4102 2.28125 76.2812 2.51172 77.0938 2.97266C77.9141 3.42578 78.5664 4.04688 79.0508 4.83594C79.5352 5.61719 79.7773 6.45703 79.7773 7.35547ZM79.5781 10.3672C80.2734 9.4375 80.6211 8.43359 80.6211 7.35547C80.6211 6.30078 80.3398 5.32031 79.7773 4.41406C79.2227 3.5 78.4727 2.77734 77.5273 2.24609C76.582 1.70703 75.5664 1.4375 74.4805 1.4375H63.5117V20H62.668V0.59375H74.4805C75.7148 0.59375 76.8672 0.898438 77.9375 1.50781C79.0156 2.11719 79.8711 2.94531 80.5039 3.99219C81.1445 5.03125 81.4648 6.15234 81.4648 7.35547C81.4648 8.50391 81.1406 9.51172 80.4922 10.3789C81.1406 11.2773 81.4648 12.1914 81.4648 13.1211C81.4648 14.168 81.2773 15.1289 80.9023 16.0039C80.5273 16.8711 80.0195 17.5938 79.3789 18.1719C78.7461 18.75 78.0078 19.1992 77.1641 19.5195C76.3203 19.8398 75.4258 20 74.4805 20H69.043V19.1562H74.4805C75.3008 19.1562 76.0859 19.0039 76.8359 18.6992C77.5859 18.3867 78.2383 17.9648 78.793 17.4336C79.3477 16.9023 79.7891 16.2617 80.1172 15.5117C80.4531 14.7617 80.6211 13.9648 80.6211 13.1211C80.6211 12.7461 80.5312 12.2969 80.3516 11.7734C80.1797 11.2422 79.9219 10.7734 79.5781 10.3672ZM87.582 20H86.7383V0.59375H87.582V20ZM85.8945 20H85.0508V0.59375H85.8945V20ZM84.207 20H83.3633V0.59375H84.207V20ZM89.2695 15.7812H98.2461V16.625H89.2695V17.4688H98.2461V18.3125H89.2695V19.1562H98.2461V20H88.4258V0.59375H98.2461V1.4375H89.2695V2.28125H98.2461V3.125H89.2695V3.96875H98.2461V4.8125H89.2695V8.1875H93.875V9.03125H89.2695V9.875H93.875V10.7188H89.2695V11.5625H93.875V12.4062H89.2695V15.7812ZM106.824 10.2383L106.402 11.1641L101.34 0.59375H102.184L106.824 10.2383ZM107.668 8.38672L107.234 9.3125L103.027 0.59375H103.871L107.668 8.38672ZM108.512 6.54688L108.09 7.47266L104.715 0.59375H105.559L108.512 6.54688ZM107.445 13.4609L113.551 0.59375H114.395L108.289 13.4609V20H107.445V13.4609ZM109.133 13.4609L115.238 0.59375H116.082L109.977 13.4609V20H109.133V13.4609ZM110.82 13.4609L116.926 0.59375H117.77L111.664 13.4609V20H110.82V13.4609ZM106.18 12.5703L111.863 0.59375H112.707L106.602 13.4609V20H105.758V13.4609L99.6523 0.59375H100.496L106.18 12.5703Z" fill="#E1B783"/>
</svg>
